<?xml version="1.0" encoding="UTF-8" standalone="no"?>
<svg
   xmlns:dc="http://purl.org/dc/elements/1.1/"
   xmlns:cc="http://creativecommons.org/ns#"
   xmlns:rdf="http://www.w3.org/1999/02/22-rdf-syntax-ns#"
   xmlns:svg="http://www.w3.org/2000/svg"
   xmlns="http://www.w3.org/2000/svg"
   xmlns:sodipodi="http://sodipodi.sourceforge.net/DTD/sodipodi-0.dtd"
   xmlns:inkscape="http://www.inkscape.org/namespaces/inkscape"
   height="20"
   viewBox="0 0 19.454247 20"
   width="19.454247"
   id="svg2"
   version="1.1"
   inkscape:version="0.91 r13725"
   sodipodi:docname="ic_settings.svg"
   style="fill:#000000">
  <metadata
     id="metadata12">
    <rdf:RDF>
      <cc:Work
         rdf:about="">
        <dc:format>image/svg+xml</dc:format>
        <dc:type
           rdf:resource="http://purl.org/dc/dcmitype/StillImage" />
        <dc:title></dc:title>
      </cc:Work>
    </rdf:RDF>
  </metadata>
  <defs
     id="defs10" />
  <sodipodi:namedview
     pagecolor="#ffffff"
     bordercolor="#666666"
     borderopacity="1"
     objecttolerance="10"
     gridtolerance="10"
     guidetolerance="10"
     inkscape:pageopacity="0"
     inkscape:pageshadow="2"
     inkscape:window-width="1536"
     inkscape:window-height="803"
     id="namedview8"
     showgrid="false"
     fit-margin-top="0"
     fit-margin-left="0"
     fit-margin-right="0"
     fit-margin-bottom="0"
     inkscape:zoom="9.8333333"
     inkscape:cx="9.7293316"
     inkscape:cy="10"
     inkscape:window-x="-8"
     inkscape:window-y="-8"
     inkscape:window-maximized="1"
     inkscape:current-layer="svg2" />
  <path
     d="m 17.159332,10.98 c 0.04,-0.32 0.07,-0.64 0.07,-0.98 0,-0.34 -0.03,-0.66 -0.07,-0.98 l 2.11,-1.65 c 0.19,-0.15 0.24,-0.42 0.12,-0.64 l -2,-3.46 c -0.12,-0.22 -0.39,-0.3 -0.61,-0.22 l -2.49,1 c -0.52,-0.4 -1.08,-0.73 -1.69,-0.98 l -0.38,-2.65 c -0.03,-0.24 -0.24,-0.42 -0.49,-0.42 L 7.7293316,0 c -0.25,0 -0.46,0.18 -0.49,0.42 l -0.38,2.65 c -0.61,0.25 -1.17,0.59 -1.69,0.98 l -2.49,-1 c -0.23,-0.09 -0.49,0 -0.61,0.22 l -2,3.46 c -0.13,0.22 -0.0699999961,0.49 0.12,0.64 l 2.11,1.65 c -0.04,0.32 -0.07,0.65 -0.07,0.98 0,0.33 0.03,0.66 0.07,0.98 l -2.11,1.65 c -0.18999999607,0.15 -0.24,0.42 -0.12,0.64 l 2,3.46 c 0.12,0.22 0.39,0.3 0.61,0.22 l 2.49,-1 c 0.52,0.4 1.08,0.73 1.69,0.98 l 0.38,2.65 c 0.03,0.24 0.24,0.42 0.49,0.42 l 4.0000004,0 c 0.25,0 0.46,-0.18 0.49,-0.42 l 0.38,-2.65 c 0.61,-0.25 1.17,-0.59 1.69,-0.98 l 2.49,1 c 0.23,0.09 0.49,0 0.61,-0.22 l 2,-3.46 c 0.12,-0.22 0.07,-0.49 -0.12,-0.64 z M 9.7293316,13.5 c -1.93,0 -3.5,-1.57 -3.5,-3.5 0,-1.93 1.57,-3.5 3.5,-3.5 1.9300004,0 3.5000004,1.57 3.5000004,3.5 0,1.93 -1.57,3.5 -3.5000004,3.5 z"
     id="path6"
     inkscape:connector-curvature="0"
     sodipodi:nodetypes="csccccccccssccccccccsccccccccssccccccccsssss"
     style="fill:#e0e0e0;fill-opacity:1" />
</svg>
